<svg width="335" height="250" viewBox="0 0 335 250" fill="none" xmlns="http://www.w3.org/2000/svg">
<rect x="0.5" y="0.5" width="334" height="249" rx="29.5" fill="white"/>
<rect x="0.5" y="0.5" width="334" height="249" rx="29.5" stroke="#101010"/>
<path d="M28.896 38.336C26.2827 38.336 24.0613 37.8227 22.232 36.796V34.5C24.1547 35.6387 26.264 36.208 28.56 36.208C30.408 36.208 31.8547 35.8533 32.9 35.144C33.964 34.416 34.496 33.436 34.496 32.204C34.496 31.084 34.0107 30.188 33.04 29.516C32.088 28.8253 30.8 28.48 29.176 28.48H26.74V26.408H29.428C30.772 26.408 31.8173 26.1373 32.564 25.596C33.3107 25.036 33.684 24.2613 33.684 23.272C33.684 22.2827 33.2547 21.5267 32.396 21.004C31.5373 20.4627 30.408 20.192 29.008 20.192C27.0293 20.192 25.0693 20.6493 23.128 21.564V19.436C25.1067 18.5213 27.104 18.064 29.12 18.064C31.1173 18.064 32.7507 18.5307 34.02 19.464C35.2893 20.3787 35.924 21.6107 35.924 23.16C35.924 24.28 35.588 25.1947 34.916 25.904C34.2627 26.6133 33.544 27.0893 32.76 27.332C33.824 27.668 34.7667 28.256 35.588 29.096C36.4093 29.9173 36.82 31 36.82 32.344C36.82 34.0987 36.1107 35.536 34.692 36.656C33.292 37.776 31.36 38.336 28.896 38.336ZM44.6313 36.348C45.5833 36.348 46.4607 36.1427 47.2633 35.732C48.0847 35.3213 48.7287 34.8173 49.1953 34.22V32.372C47.926 31.532 46.5073 31.112 44.9393 31.112C43.7447 31.112 42.802 31.3453 42.1113 31.812C41.4393 32.26 41.1033 32.8947 41.1033 33.716C41.1033 34.5933 41.4393 35.256 42.1113 35.704C42.7833 36.1333 43.6233 36.348 44.6313 36.348ZM44.0153 38.336C42.578 38.336 41.3553 37.9347 40.3473 37.132C39.358 36.3293 38.8633 35.228 38.8633 33.828C38.8633 32.428 39.386 31.336 40.4313 30.552C41.4953 29.7493 42.8207 29.348 44.4073 29.348C46.2553 29.348 47.8513 29.768 49.1953 30.608V29.376C49.1953 27.1733 47.7393 26.072 44.8273 26.072C43.2407 26.072 41.766 26.52 40.4033 27.416V25.316C41.766 24.4947 43.3993 24.084 45.3033 24.084C47.1327 24.084 48.6073 24.5133 49.7273 25.372C50.8473 26.2307 51.4073 27.4907 51.4073 29.152V34.5C51.4073 35.676 51.8273 36.264 52.6673 36.264C53.0033 36.264 53.2647 36.1987 53.4513 36.068V37.804C53.1153 38.028 52.6393 38.14 52.0233 38.14C50.586 38.14 49.718 37.4307 49.4193 36.012C48.038 37.5613 46.2367 38.336 44.0153 38.336ZM58.0637 43.6H55.8237V24.42H58.0637V26.52C59.3144 24.896 61.0317 24.084 63.2157 24.084C65.1944 24.084 66.8184 24.784 68.0877 26.184C69.357 27.5653 69.9917 29.236 69.9917 31.196C69.9917 33.1747 69.357 34.864 68.0877 36.264C66.8184 37.6453 65.1944 38.336 63.2157 38.336C60.9944 38.336 59.277 37.524 58.0637 35.9V43.6ZM58.0637 29.012V33.436C58.4557 34.2947 59.0624 34.9947 59.8837 35.536C60.705 36.0773 61.6384 36.348 62.6837 36.348C64.1397 36.348 65.3437 35.8533 66.2957 34.864C67.2477 33.8747 67.7237 32.652 67.7237 31.196C67.7237 29.74 67.2477 28.5267 66.2957 27.556C65.3437 26.5667 64.1397 26.072 62.6837 26.072C61.6944 26.072 60.7704 26.352 59.9117 26.912C59.0717 27.472 58.4557 28.172 58.0637 29.012ZM71.7205 38L75.7245 32.596C73.4845 32.1667 72.3645 30.832 72.3645 28.592C72.3645 27.3787 72.7845 26.38 73.6245 25.596C74.4645 24.812 75.6871 24.42 77.2925 24.42H84.2925V38H82.0805V33.016H77.9365L74.2405 38H71.7205ZM77.6005 31.112H82.0805V26.324H77.6005C76.6485 26.324 75.9111 26.5293 75.3885 26.94C74.8845 27.3507 74.6325 27.948 74.6325 28.732C74.6325 30.3187 75.6218 31.112 77.6005 31.112ZM90.036 24.42L95.552 30.132V24.42H97.792V30.132L103.308 24.42H106.052L99.836 30.72L106.752 38H103.868L97.792 31.532V38H95.552V31.532L89.448 38H86.62L93.508 30.72L87.292 24.42H90.036ZM114.433 38.336C112.323 38.336 110.55 37.6733 109.113 36.348C107.675 35.004 106.957 33.296 106.957 31.224C106.957 29.1707 107.591 27.472 108.861 26.128C110.149 24.7653 111.819 24.084 113.873 24.084C114.937 24.084 115.889 24.308 116.729 24.756C117.587 25.1853 118.259 25.7547 118.745 26.464C119.23 27.1733 119.594 27.9293 119.837 28.732C120.098 29.5347 120.229 30.3467 120.229 31.168V31.784H109.225C109.374 33.184 109.953 34.2947 110.961 35.116C111.987 35.9373 113.294 36.348 114.881 36.348C116.449 36.348 117.905 35.928 119.249 35.088V37.048C118.11 37.9067 116.505 38.336 114.433 38.336ZM109.253 29.992H117.989C117.933 29.0027 117.55 28.1067 116.841 27.304C116.15 26.4827 115.123 26.072 113.761 26.072C112.454 26.072 111.39 26.464 110.569 27.248C109.766 28.0133 109.327 28.928 109.253 29.992ZM123.94 38V24.42H126.18V30.048H134.216V24.42H136.428V38H134.216V32.036H126.18V38H123.94ZM141.364 26.184C142.745 24.784 144.509 24.084 146.656 24.084C148.803 24.084 150.567 24.784 151.948 26.184C153.329 27.584 154.02 29.264 154.02 31.224C154.02 33.184 153.329 34.864 151.948 36.264C150.567 37.6453 148.803 38.336 146.656 38.336C144.509 38.336 142.745 37.6453 141.364 36.264C139.983 34.864 139.292 33.184 139.292 31.224C139.292 29.264 139.983 27.584 141.364 26.184ZM143.016 34.892C143.987 35.8627 145.2 36.348 146.656 36.348C148.112 36.348 149.325 35.8627 150.296 34.892C151.267 33.9027 151.752 32.68 151.752 31.224C151.752 29.768 151.267 28.5453 150.296 27.556C149.325 26.5667 148.112 26.072 146.656 26.072C145.2 26.072 143.987 26.5667 143.016 27.556C142.045 28.5453 141.56 29.768 141.56 31.224C141.56 32.68 142.045 33.9027 143.016 34.892ZM169.974 38.336C167.66 38.336 165.849 37.5333 164.542 35.928C163.254 34.3227 162.61 32.1387 162.61 29.376C162.61 28.5173 162.657 27.7333 162.75 27.024C162.844 26.296 162.993 25.6333 163.198 25.036C163.404 24.4387 163.628 23.8973 163.87 23.412C164.113 22.9267 164.44 22.488 164.85 22.096C165.261 21.704 165.653 21.3587 166.026 21.06C166.4 20.7427 166.885 20.4533 167.482 20.192C168.08 19.9307 168.63 19.7067 169.134 19.52C169.638 19.3333 170.273 19.1467 171.038 18.96C171.804 18.7733 172.485 18.624 173.082 18.512C173.68 18.3813 174.436 18.232 175.35 18.064V20.136C172.345 20.696 170.385 21.144 169.47 21.48C167.38 22.208 165.998 23.384 165.326 25.008C164.953 25.8667 164.738 26.9027 164.682 28.116C165.242 27.164 166.026 26.4173 167.034 25.876C168.061 25.3347 169.246 25.064 170.59 25.064C172.345 25.064 173.82 25.6613 175.014 26.856C176.228 28.0507 176.834 29.5627 176.834 31.392C176.834 33.4267 176.172 35.0973 174.846 36.404C173.54 37.692 171.916 38.336 169.974 38.336ZM169.974 36.348C171.281 36.348 172.373 35.9093 173.25 35.032C174.146 34.136 174.594 32.9787 174.594 31.56C174.594 30.1973 174.156 29.1053 173.278 28.284C172.42 27.4627 171.356 27.052 170.086 27.052C168.948 27.052 167.893 27.3973 166.922 28.088C165.952 28.7787 165.261 29.5813 164.85 30.496C164.944 32.344 165.429 33.7813 166.306 34.808C167.184 35.8347 168.406 36.348 169.974 36.348ZM180.735 26.184C182.116 24.784 183.88 24.084 186.027 24.084C188.173 24.084 189.937 24.784 191.319 26.184C192.7 27.584 193.391 29.264 193.391 31.224C193.391 33.184 192.7 34.864 191.319 36.264C189.937 37.6453 188.173 38.336 186.027 38.336C183.88 38.336 182.116 37.6453 180.735 36.264C179.353 34.864 178.663 33.184 178.663 31.224C178.663 29.264 179.353 27.584 180.735 26.184ZM182.387 34.892C183.357 35.8627 184.571 36.348 186.027 36.348C187.483 36.348 188.696 35.8627 189.667 34.892C190.637 33.9027 191.123 32.68 191.123 31.224C191.123 29.768 190.637 28.5453 189.667 27.556C188.696 26.5667 187.483 26.072 186.027 26.072C184.571 26.072 183.357 26.5667 182.387 27.556C181.416 28.5453 180.931 29.768 180.931 31.224C180.931 32.68 181.416 33.9027 182.387 34.892ZM194.047 38V35.984C194.141 36.0213 194.327 36.04 194.607 36.04C195.167 36.04 195.643 35.8627 196.035 35.508C196.446 35.1347 196.754 34.6027 196.959 33.912C197.165 33.2213 197.314 32.4747 197.407 31.672C197.519 30.8507 197.585 29.8893 197.603 28.788L197.715 24.42H208.019V38H205.807V26.352H199.843L199.759 28.844C199.741 29.684 199.703 30.412 199.647 31.028C199.591 31.644 199.498 32.344 199.367 33.128C199.255 33.8933 199.078 34.5467 198.835 35.088C198.611 35.6107 198.322 36.1147 197.967 36.6C197.613 37.0667 197.155 37.4213 196.595 37.664C196.054 37.9067 195.429 38.028 194.719 38.028C194.421 38.028 194.197 38.0187 194.047 38ZM211.842 38V24.42H214.082V28.872H218.646C220.27 28.872 221.548 29.2827 222.482 30.104C223.415 30.9253 223.882 32.036 223.882 33.436C223.882 34.78 223.424 35.8813 222.51 36.74C221.614 37.58 220.354 38 218.73 38H211.842ZM214.082 36.068H218.366C219.392 36.068 220.195 35.844 220.774 35.396C221.352 34.948 221.642 34.304 221.642 33.464C221.642 32.5867 221.352 31.924 220.774 31.476C220.214 31.028 219.411 30.804 218.366 30.804H214.082V36.068ZM227.244 38V24.42H229.484V36.068H235.42V24.42H237.632V36.068H243.624V24.42H245.836V38H227.244ZM256.169 38.336C254.06 38.336 252.287 37.6733 250.849 36.348C249.412 35.004 248.693 33.296 248.693 31.224C248.693 29.1707 249.328 27.472 250.597 26.128C251.885 24.7653 253.556 24.084 255.609 24.084C256.673 24.084 257.625 24.308 258.465 24.756C259.324 25.1853 259.996 25.7547 260.481 26.464C260.967 27.1733 261.331 27.9293 261.573 28.732C261.835 29.5347 261.965 30.3467 261.965 31.168V31.784H250.961C251.111 33.184 251.689 34.2947 252.697 35.116C253.724 35.9373 255.031 36.348 256.617 36.348C258.185 36.348 259.641 35.928 260.985 35.088V37.048C259.847 37.9067 258.241 38.336 256.169 38.336ZM250.989 29.992H259.725C259.669 29.0027 259.287 28.1067 258.577 27.304C257.887 26.4827 256.86 26.072 255.497 26.072C254.191 26.072 253.127 26.464 252.305 27.248C251.503 28.0133 251.064 28.928 250.989 29.992ZM26.292 69V51.864L21.896 54.328V52.144L26.516 49.4H28.532V69H26.292ZM46.396 66.424C44.9027 68.3653 42.9613 69.336 40.572 69.336C38.1827 69.336 36.232 68.3653 34.72 66.424C33.2267 64.464 32.48 62.056 32.48 59.2C32.48 56.344 33.2267 53.9453 34.72 52.004C36.232 50.044 38.1827 49.064 40.572 49.064C42.9613 49.064 44.9027 50.044 46.396 52.004C47.8893 53.9453 48.636 56.344 48.636 59.2C48.636 62.056 47.8893 64.464 46.396 66.424ZM36.4 64.912C37.4827 66.4427 38.8733 67.208 40.572 67.208C42.2707 67.208 43.6613 66.4427 44.744 64.912C45.8267 63.3813 46.368 61.4773 46.368 59.2C46.368 56.9227 45.8267 55.0187 44.744 53.488C43.6613 51.9573 42.2707 51.192 40.572 51.192C38.8733 51.192 37.4827 51.9573 36.4 53.488C35.3173 55.0187 34.776 56.9227 34.776 59.2C34.776 61.4773 35.3173 63.3813 36.4 64.912ZM65.3802 66.424C63.8869 68.3653 61.9456 69.336 59.5562 69.336C57.1669 69.336 55.2162 68.3653 53.7042 66.424C52.2109 64.464 51.4642 62.056 51.4642 59.2C51.4642 56.344 52.2109 53.9453 53.7042 52.004C55.2162 50.044 57.1669 49.064 59.5562 49.064C61.9456 49.064 63.8869 50.044 65.3802 52.004C66.8736 53.9453 67.6202 56.344 67.6202 59.2C67.6202 62.056 66.8736 64.464 65.3802 66.424ZM55.3842 64.912C56.4669 66.4427 57.8576 67.208 59.5562 67.208C61.2549 67.208 62.6456 66.4427 63.7282 64.912C64.8109 63.3813 65.3522 61.4773 65.3522 59.2C65.3522 56.9227 64.8109 55.0187 63.7282 53.488C62.6456 51.9573 61.2549 51.192 59.5562 51.192C57.8576 51.192 56.4669 51.9573 55.3842 53.488C54.3016 55.0187 53.7602 56.9227 53.7602 59.2C53.7602 61.4773 54.3016 63.3813 55.3842 64.912ZM73.1924 55.42V60.936L79.4084 55.42H82.3764L75.3764 61.552L83.3844 69H80.2484L73.1924 62.42V69H70.9524V55.42H73.1924ZM96.3364 69.336C94.3391 69.336 92.6591 69.028 91.2964 68.412V66.256C92.6964 66.984 94.2737 67.348 96.0284 67.348C98.9217 67.348 100.368 66.5547 100.368 64.968C100.368 63.5493 99.1924 62.84 96.8404 62.84H94.4324V60.936H96.8404C97.8857 60.936 98.6511 60.768 99.1364 60.432C99.6404 60.0773 99.8924 59.62 99.8924 59.06C99.8924 57.7347 98.6511 57.072 96.1684 57.072C94.6564 57.072 93.1724 57.38 91.7164 57.996V55.98C93.0791 55.3827 94.7124 55.084 96.6164 55.084C98.1657 55.084 99.4724 55.42 100.536 56.092C101.6 56.7453 102.132 57.604 102.132 58.668C102.132 59.5453 101.936 60.1987 101.544 60.628C101.152 61.0573 100.63 61.4213 99.9764 61.72C101.787 62.28 102.692 63.4187 102.692 65.136C102.692 66.3867 102.114 67.404 100.956 68.188C99.7991 68.9533 98.2591 69.336 96.3364 69.336ZM106.903 57.184C108.285 55.784 110.049 55.084 112.195 55.084C114.342 55.084 116.106 55.784 117.487 57.184C118.869 58.584 119.559 60.264 119.559 62.224C119.559 64.184 118.869 65.864 117.487 67.264C116.106 68.6453 114.342 69.336 112.195 69.336C110.049 69.336 108.285 68.6453 106.903 67.264C105.522 65.864 104.831 64.184 104.831 62.224C104.831 60.264 105.522 58.584 106.903 57.184ZM108.555 65.892C109.526 66.8627 110.739 67.348 112.195 67.348C113.651 67.348 114.865 66.8627 115.835 65.892C116.806 64.9027 117.291 63.68 117.291 62.224C117.291 60.768 116.806 59.5453 115.835 58.556C114.865 57.5667 113.651 57.072 112.195 57.072C110.739 57.072 109.526 57.5667 108.555 58.556C107.585 59.5453 107.099 60.768 107.099 62.224C107.099 63.68 107.585 64.9027 108.555 65.892ZM123.21 69V55.42H125.45V61.048H133.486V55.42H135.698V69H133.486V63.036H125.45V69H123.21ZM142.761 69V57.352H137.917V55.42H149.817V57.352H144.973V69H142.761ZM152.727 57.184C154.108 55.784 155.872 55.084 158.019 55.084C160.166 55.084 161.93 55.784 163.311 57.184C164.692 58.584 165.383 60.264 165.383 62.224C165.383 64.184 164.692 65.864 163.311 67.264C161.93 68.6453 160.166 69.336 158.019 69.336C155.872 69.336 154.108 68.6453 152.727 67.264C151.346 65.864 150.655 64.184 150.655 62.224C150.655 60.264 151.346 58.584 152.727 57.184ZM154.379 65.892C155.35 66.8627 156.563 67.348 158.019 67.348C159.475 67.348 160.688 66.8627 161.659 65.892C162.63 64.9027 163.115 63.68 163.115 62.224C163.115 60.768 162.63 59.5453 161.659 58.556C160.688 57.5667 159.475 57.072 158.019 57.072C156.563 57.072 155.35 57.5667 154.379 58.556C153.408 59.5453 152.923 60.768 152.923 62.224C152.923 63.68 153.408 64.9027 154.379 65.892ZM169.033 69V55.42H176.229C177.573 55.42 178.6 55.7373 179.309 56.372C180.019 57.0067 180.373 57.8467 180.373 58.892C180.373 60.348 179.804 61.3373 178.665 61.86C180.401 62.3827 181.269 63.54 181.269 65.332C181.269 66.4707 180.877 67.3667 180.093 68.02C179.309 68.6733 178.18 69 176.705 69H169.033ZM171.273 67.096H176.257C178.105 67.096 179.029 66.4147 179.029 65.052C179.029 63.652 178.105 62.952 176.257 62.952H171.273V67.096ZM171.273 61.132H175.641C176.444 61.132 177.069 60.9733 177.517 60.656C177.965 60.32 178.189 59.844 178.189 59.228C178.189 57.9587 177.34 57.324 175.641 57.324H171.273V61.132Z" fill="#101010"/>
<path d="M127.111 110.486C136.406 120.606 141.938 133.614 142.78 147.329C143.623 161.044 139.723 174.631 131.737 185.812C123.75 196.993 112.162 205.088 98.9151 208.74C85.6685 212.391 71.5692 211.376 58.9818 205.866C46.3944 200.356 36.0845 190.685 29.781 178.475C23.4776 166.266 21.564 152.26 24.3612 138.807C27.1584 125.355 34.4962 113.273 45.1441 104.588C55.792 95.9027 69.1024 91.1432 82.843 91.1071L82.8648 99.4286C71.0333 99.4597 59.5723 103.558 50.4038 111.036C41.2354 118.514 34.917 128.918 32.5085 140.501C30.0999 152.085 31.7476 164.145 37.1753 174.658C42.6029 185.171 51.4804 193.498 62.3189 198.243C73.1574 202.988 85.2977 203.861 96.7039 200.717C108.11 197.573 118.088 190.603 124.965 180.975C131.842 171.348 135.2 159.648 134.475 147.839C133.749 136.03 128.986 124.829 120.982 116.115L127.111 110.486Z" fill="#101010"/>
<path d="M82.8833 91.1072C91.27 91.0908 99.5666 92.836 107.236 96.2297C114.905 99.6234 121.777 104.59 127.405 110.808L121.407 116.236C116.539 110.858 110.596 106.563 103.963 103.627C97.3291 100.692 90.153 99.1824 82.8991 99.1966L82.8833 91.1072Z" fill="#FFBC6D"/>
<path d="M52.16 166V142.72L46.04 146V141.72L52.64 138H56.48V166H52.16ZM82.9534 162.32C80.8201 165.12 77.9668 166.52 74.3934 166.52C70.8201 166.52 67.9668 165.12 65.8334 162.32C63.7001 159.493 62.6334 156.053 62.6334 152C62.6334 147.947 63.7001 144.52 65.8334 141.72C67.9934 138.893 70.8468 137.48 74.3934 137.48C77.9668 137.48 80.8201 138.893 82.9534 141.72C85.1134 144.547 86.1934 147.973 86.1934 152C86.1934 156.053 85.1134 159.493 82.9534 162.32ZM74.3934 162.4C76.6068 162.4 78.3934 161.4 79.7534 159.4C81.1134 157.4 81.7934 154.933 81.7934 152C81.7934 149.067 81.1134 146.6 79.7534 144.6C78.3934 142.6 76.6068 141.6 74.3934 141.6C72.2068 141.6 70.4334 142.613 69.0734 144.64C67.7134 146.64 67.0334 149.093 67.0334 152C67.0334 154.907 67.7134 157.373 69.0734 159.4C70.4334 161.4 72.2068 162.4 74.3934 162.4ZM94.9556 166L111.516 138H114.836L98.3156 166H94.9556ZM96.7956 137.48C98.7956 137.48 100.449 138.133 101.756 139.44C103.062 140.747 103.716 142.36 103.716 144.28C103.716 146.2 103.062 147.813 101.756 149.12C100.449 150.4 98.7956 151.04 96.7956 151.04C94.8223 151.04 93.1823 150.4 91.8756 149.12C90.5956 147.813 89.9556 146.2 89.9556 144.28C89.9556 142.36 90.5956 140.747 91.8756 139.44C93.1823 138.133 94.8223 137.48 96.7956 137.48ZM96.7956 148.12C97.9156 148.12 98.8223 147.76 99.5156 147.04C100.209 146.32 100.556 145.4 100.556 144.28C100.556 143.16 100.209 142.24 99.5156 141.52C98.8223 140.8 97.9156 140.44 96.7956 140.44C95.7023 140.44 94.809 140.8 94.1156 141.52C93.449 142.24 93.1156 143.16 93.1156 144.28C93.1156 145.4 93.449 146.32 94.1156 147.04C94.809 147.76 95.7023 148.12 96.7956 148.12ZM107.996 154.92C109.302 153.613 110.942 152.96 112.916 152.96C114.889 152.96 116.529 153.613 117.836 154.92C119.169 156.227 119.836 157.827 119.836 159.72C119.836 161.64 119.182 163.253 117.876 164.56C116.569 165.867 114.916 166.52 112.916 166.52C110.942 166.52 109.302 165.867 107.996 164.56C106.716 163.253 106.076 161.64 106.076 159.72C106.076 157.827 106.716 156.227 107.996 154.92ZM112.916 163.56C114.036 163.56 114.942 163.2 115.636 162.48C116.329 161.76 116.676 160.84 116.676 159.72C116.676 158.6 116.329 157.68 115.636 156.96C114.942 156.24 114.036 155.88 112.916 155.88C111.822 155.88 110.929 156.24 110.236 156.96C109.569 157.68 109.236 158.6 109.236 159.72C109.236 160.84 109.569 161.76 110.236 162.48C110.929 163.2 111.822 163.56 112.916 163.56Z" fill="#101010"/>
<path d="M314.786 150.893C314.786 183.971 287.971 210.786 254.893 210.786C221.815 210.786 195 183.971 195 150.893C195 117.815 221.815 91 254.893 91C287.971 91 314.786 117.815 314.786 150.893ZM203.322 150.893C203.322 179.375 226.411 202.464 254.893 202.464C283.375 202.464 306.464 179.375 306.464 150.893C306.464 122.411 283.375 99.3215 254.893 99.3215C226.411 99.3215 203.322 122.411 203.322 150.893Z" fill="#9A92F7"/>
<path d="M254.893 91C241.072 91 227.676 95.78 216.977 104.53L222.245 110.971C231.458 103.437 242.992 99.3215 254.893 99.3215V91Z" fill="#101010"/>
<path d="M226.24 137.48C229.653 137.48 232.32 138.64 234.24 140.96C236.187 143.28 237.16 146.493 237.16 150.6C237.16 155.107 236.053 158.893 233.84 161.96C231.627 165 228.56 166.52 224.64 166.52C222.24 166.52 220.187 165.933 218.48 164.76V160.76C220.213 161.933 222.107 162.52 224.16 162.52C226.853 162.52 228.907 161.587 230.32 159.72C231.76 157.853 232.533 155.587 232.64 152.92C231.013 155.027 228.6 156.08 225.4 156.08C222.84 156.08 220.693 155.267 218.96 153.64C217.253 151.987 216.4 149.827 216.4 147.16C216.4 144.307 217.333 141.987 219.2 140.2C221.067 138.387 223.413 137.48 226.24 137.48ZM226.52 141.36C224.867 141.36 223.493 141.893 222.4 142.96C221.307 144.027 220.76 145.4 220.76 147.08C220.76 148.707 221.307 150.027 222.4 151.04C223.493 152.027 224.88 152.52 226.56 152.52C227.92 152.52 229.2 152.093 230.4 151.24C231.627 150.387 232.413 149.333 232.76 148.08C232.6 146 231.973 144.36 230.88 143.16C229.813 141.96 228.36 141.36 226.52 141.36ZM251.787 137.48C255.2 137.48 257.867 138.64 259.787 140.96C261.734 143.28 262.707 146.493 262.707 150.6C262.707 155.107 261.6 158.893 259.387 161.96C257.174 165 254.107 166.52 250.187 166.52C247.787 166.52 245.734 165.933 244.027 164.76V160.76C245.76 161.933 247.654 162.52 249.707 162.52C252.4 162.52 254.454 161.587 255.867 159.72C257.307 157.853 258.08 155.587 258.187 152.92C256.56 155.027 254.147 156.08 250.947 156.08C248.387 156.08 246.24 155.267 244.507 153.64C242.8 151.987 241.947 149.827 241.947 147.16C241.947 144.307 242.88 141.987 244.747 140.2C246.614 138.387 248.96 137.48 251.787 137.48ZM252.067 141.36C250.414 141.36 249.04 141.893 247.947 142.96C246.854 144.027 246.307 145.4 246.307 147.08C246.307 148.707 246.854 150.027 247.947 151.04C249.04 152.027 250.427 152.52 252.107 152.52C253.467 152.52 254.747 152.093 255.947 151.24C257.174 150.387 257.96 149.333 258.307 148.08C258.147 146 257.52 144.36 256.427 143.16C255.36 141.96 253.907 141.36 252.067 141.36ZM271.534 166L288.094 138H291.414L274.894 166H271.534ZM273.374 137.48C275.374 137.48 277.027 138.133 278.334 139.44C279.64 140.747 280.294 142.36 280.294 144.28C280.294 146.2 279.64 147.813 278.334 149.12C277.027 150.4 275.374 151.04 273.374 151.04C271.4 151.04 269.76 150.4 268.454 149.12C267.174 147.813 266.534 146.2 266.534 144.28C266.534 142.36 267.174 140.747 268.454 139.44C269.76 138.133 271.4 137.48 273.374 137.48ZM273.374 148.12C274.494 148.12 275.4 147.76 276.094 147.04C276.787 146.32 277.134 145.4 277.134 144.28C277.134 143.16 276.787 142.24 276.094 141.52C275.4 140.8 274.494 140.44 273.374 140.44C272.28 140.44 271.387 140.8 270.694 141.52C270.027 142.24 269.694 143.16 269.694 144.28C269.694 145.4 270.027 146.32 270.694 147.04C271.387 147.76 272.28 148.12 273.374 148.12ZM284.574 154.92C285.88 153.613 287.52 152.96 289.494 152.96C291.467 152.96 293.107 153.613 294.414 154.92C295.747 156.227 296.414 157.827 296.414 159.72C296.414 161.64 295.76 163.253 294.454 164.56C293.147 165.867 291.494 166.52 289.494 166.52C287.52 166.52 285.88 165.867 284.574 164.56C283.294 163.253 282.654 161.64 282.654 159.72C282.654 157.827 283.294 156.227 284.574 154.92ZM289.494 163.56C290.614 163.56 291.52 163.2 292.214 162.48C292.907 161.76 293.254 160.84 293.254 159.72C293.254 158.6 292.907 157.68 292.214 156.96C291.52 156.24 290.614 155.88 289.494 155.88C288.4 155.88 287.507 156.24 286.814 156.96C286.147 157.68 285.814 158.6 285.814 159.72C285.814 160.84 286.147 161.76 286.814 162.48C287.507 163.2 288.4 163.56 289.494 163.56Z" fill="#101010"/>
<path d="M154 152H162H180M180 152L171.5 144.5M180 152L171.5 159" stroke="#101010" stroke-width="2"/>
</svg>
