<svg width="117" height="20" viewBox="0 0 117 20" fill="none" xmlns="http://www.w3.org/2000/svg">
<path d="M75.0261 8.54443V15.361C75.0261 19.2503 69.927 19.329 69.927 15.5857" stroke="white" stroke-width="2.28883"/>
<path d="M67.3779 8.11883L73.8212 1.66304C74.4865 0.996416 75.5666 0.996417 76.2319 1.66304L82.6752 8.11883" stroke="white" stroke-width="2.28883"/>
<path d="M110.027 18.9103C108.507 18.9103 107.231 18.6826 106.2 18.2274C105.169 17.7546 104.374 17.1506 103.815 16.4152C103.273 15.6623 102.985 14.8656 102.95 14.0251C102.95 13.885 103.002 13.7625 103.107 13.6574C103.229 13.5348 103.369 13.4736 103.526 13.4736H104.863C105.073 13.4736 105.23 13.5261 105.335 13.6311C105.44 13.7362 105.51 13.8588 105.545 13.9988C105.632 14.4191 105.842 14.8393 106.174 15.2595C106.523 15.6623 107.004 16.0037 107.616 16.2838C108.245 16.5465 109.049 16.6778 110.027 16.6778C111.53 16.6778 112.631 16.4152 113.33 15.8899C114.047 15.3471 114.405 14.6292 114.405 13.7362C114.405 13.1234 114.213 12.6331 113.828 12.2654C113.461 11.8802 112.893 11.5388 112.124 11.2411C111.355 10.9434 110.359 10.6195 109.136 10.2693C107.86 9.90162 106.803 9.49891 105.964 9.06117C105.125 8.62343 104.496 8.08064 104.077 7.43279C103.675 6.78493 103.474 5.96199 103.474 4.96394C103.474 4.01843 103.727 3.17797 104.234 2.44258C104.741 1.68967 105.466 1.09434 106.41 0.656606C107.371 0.218869 108.533 0 109.896 0C110.98 0 111.923 0.148831 112.727 0.446493C113.549 0.726645 114.23 1.11185 114.772 1.60212C115.314 2.07488 115.724 2.59141 116.004 3.15171C116.284 3.69451 116.432 4.22855 116.45 4.75383C116.45 4.8764 116.406 4.99896 116.318 5.12153C116.231 5.22659 116.091 5.27912 115.899 5.27912H114.51C114.387 5.27912 114.256 5.2441 114.117 5.17406C113.994 5.10402 113.898 4.9727 113.828 4.7801C113.723 4.06221 113.321 3.45813 112.622 2.96786C111.923 2.4776 111.015 2.23246 109.896 2.23246C108.76 2.23246 107.834 2.45133 107.118 2.88907C106.419 3.32681 106.069 4.00968 106.069 4.93768C106.069 5.533 106.235 6.03202 106.567 6.43474C106.899 6.81995 107.423 7.16139 108.14 7.45905C108.856 7.75671 109.791 8.07188 110.945 8.40456C112.343 8.78977 113.487 9.20124 114.379 9.63898C115.27 10.0592 115.925 10.5933 116.345 11.2411C116.782 11.8714 117 12.6856 117 13.6837C117 14.7868 116.712 15.7323 116.135 16.5202C115.558 17.2906 114.746 17.886 113.697 18.3062C112.666 18.7089 111.443 18.9103 110.027 18.9103Z" fill="white"/>
<path d="M86.5316 18.6477C86.3394 18.6477 86.1908 18.5951 86.086 18.4901C85.9811 18.3675 85.9287 18.2187 85.9287 18.0436V0.893037C85.9287 0.700433 85.9811 0.551603 86.086 0.446546C86.1908 0.323979 86.3394 0.262695 86.5316 0.262695H87.7374C87.9471 0.262695 88.1044 0.315224 88.2093 0.420282C88.3141 0.507829 88.3753 0.577867 88.3928 0.630395L97.0956 14.0252V0.893037C97.0956 0.700433 97.148 0.551603 97.2528 0.446546C97.3577 0.323979 97.5062 0.262695 97.6985 0.262695H98.9567C99.1489 0.262695 99.2975 0.323979 99.4023 0.446546C99.5247 0.551603 99.5858 0.700433 99.5858 0.893037V18.0173C99.5858 18.1924 99.5247 18.3413 99.4023 18.4638C99.2975 18.5864 99.1577 18.6477 98.9829 18.6477H97.7247C97.5324 18.6477 97.3839 18.5951 97.279 18.4901C97.1917 18.385 97.1305 18.315 97.0956 18.28L88.419 5.01652V18.0436C88.419 18.2187 88.3578 18.3675 88.2355 18.4901C88.1306 18.5951 87.9821 18.6477 87.7898 18.6477H86.5316Z" fill="white"/>
<path d="M51.9801 18.6477C51.7879 18.6477 51.6393 18.5951 51.5345 18.4901C51.4296 18.3675 51.3772 18.2187 51.3772 18.0436V0.893037C51.3772 0.700433 51.4296 0.551603 51.5345 0.446546C51.6393 0.323979 51.7879 0.262695 51.9801 0.262695H58.6383C59.9315 0.262695 61.0499 0.47281 61.9936 0.893037C62.9547 1.31327 63.6974 1.94361 64.2217 2.78406C64.746 3.60701 65.0081 4.64007 65.0081 5.88324C65.0081 7.12642 64.746 8.15948 64.2217 8.98243C63.6974 9.80537 62.9547 10.427 61.9936 10.8472C61.0499 11.2674 59.9315 11.4775 58.6383 11.4775H53.9985V18.0436C53.9985 18.2187 53.9374 18.3675 53.815 18.4901C53.7102 18.5951 53.5616 18.6477 53.3694 18.6477H51.9801ZM53.9723 9.27133H58.5072C59.8004 9.27133 60.7703 8.98243 61.4169 8.40461C62.0635 7.8268 62.3868 6.98634 62.3868 5.88324C62.3868 4.79766 62.0722 3.9572 61.4431 3.36188C60.814 2.76655 59.8353 2.46889 58.5072 2.46889H53.9723V9.27133Z" fill="white"/>
<path d="M35.1617 18.6477C34.9695 18.6477 34.821 18.5951 34.7161 18.4901C34.6113 18.3675 34.5588 18.2187 34.5588 18.0436V0.893037C34.5588 0.700433 34.6113 0.551603 34.7161 0.446546C34.821 0.323979 34.9695 0.262695 35.1617 0.262695H41.8199C43.1131 0.262695 44.2315 0.47281 45.1752 0.893037C46.1364 1.31327 46.8791 1.94361 47.4033 2.78406C47.9276 3.60701 48.1897 4.64007 48.1897 5.88324C48.1897 7.12642 47.9276 8.15948 47.4033 8.98243C46.8791 9.80537 46.1364 10.427 45.1752 10.8472C44.2315 11.2674 43.1131 11.4775 41.8199 11.4775H37.1802V18.0436C37.1802 18.2187 37.119 18.3675 36.9967 18.4901C36.8918 18.5951 36.7433 18.6477 36.551 18.6477H35.1617ZM37.154 9.27133H41.6888C42.982 9.27133 43.9519 8.98243 44.5985 8.40461C45.2451 7.8268 45.5684 6.98634 45.5684 5.88324C45.5684 4.79766 45.2538 3.9572 44.6247 3.36188C43.9956 2.76655 43.017 2.46889 41.6888 2.46889H37.154V9.27133Z" fill="white"/>
<path d="M23.3981 18.9103C21.9127 18.9103 20.637 18.6564 19.571 18.1486C18.505 17.6233 17.6836 16.8266 17.1069 15.7586C16.5303 14.673 16.207 13.316 16.1371 11.6876C16.1196 10.9172 16.1108 10.1818 16.1108 9.4814C16.1108 8.76351 16.1196 8.01935 16.1371 7.24894C16.207 5.63806 16.539 4.29858 17.1332 3.2305C17.7448 2.14491 18.5836 1.33948 19.6496 0.814192C20.7331 0.271398 21.9826 0 23.3981 0C24.8311 0 26.0806 0.271398 27.1466 0.814192C28.2301 1.33948 29.0777 2.14491 29.6893 3.2305C30.301 4.29858 30.633 5.63806 30.6854 7.24894C30.7204 8.01935 30.7378 8.76351 30.7378 9.4814C30.7378 10.1818 30.7204 10.9172 30.6854 11.6876C30.633 13.316 30.3097 14.673 29.7155 15.7586C29.1388 16.8266 28.3175 17.6233 27.2515 18.1486C26.1855 18.6564 24.901 18.9103 23.3981 18.9103ZM23.3981 16.6778C24.7437 16.6778 25.836 16.2751 26.6748 15.4696C27.5311 14.6642 27.9942 13.3598 28.0641 11.5563C28.099 10.7683 28.1165 10.068 28.1165 9.45513C28.1165 8.82479 28.099 8.12441 28.0641 7.35399C28.0291 6.14584 27.802 5.1653 27.3825 4.41239C26.9806 3.65949 26.4389 3.10794 25.7573 2.75775C25.0758 2.40756 24.2894 2.23246 23.3981 2.23246C22.5418 2.23246 21.7729 2.40756 21.0914 2.75775C20.4098 3.10794 19.8593 3.65949 19.4399 4.41239C19.038 5.1653 18.8108 6.14584 18.7584 7.35399C18.7409 8.12441 18.7322 8.82479 18.7322 9.45513C18.7322 10.068 18.7409 10.7683 18.7584 11.5563C18.8283 13.3598 19.2914 14.6642 20.1477 15.4696C21.004 16.2751 22.0875 16.6778 23.3981 16.6778Z" fill="white"/>
<path d="M0.602905 18.6477C0.410674 18.6477 0.262133 18.5951 0.157279 18.4901C0.0524264 18.3675 0 18.2187 0 18.0436L0 0.893037C0 0.700433 0.0524264 0.551603 0.157279 0.446546C0.262133 0.323979 0.410674 0.262695 0.602905 0.262695H7.26107C8.55426 0.262695 9.67269 0.47281 10.6164 0.893037C11.5775 1.31327 12.3202 1.94361 12.8445 2.78406C13.3688 3.60701 13.6309 4.64007 13.6309 5.88324C13.6309 7.12642 13.3688 8.15948 12.8445 8.98243C12.3202 9.80537 11.5775 10.427 10.6164 10.8472C9.67269 11.2674 8.55426 11.4775 7.26107 11.4775H2.62133V18.0436C2.62133 18.2187 2.56016 18.3675 2.43783 18.4901C2.33298 18.5951 2.18444 18.6477 1.99221 18.6477H0.602905ZM2.59511 9.27133H7.13001C8.42319 9.27133 9.39308 8.98243 10.0397 8.40461C10.6863 7.8268 11.0096 6.98634 11.0096 5.88324C11.0096 4.79766 10.695 3.9572 10.0659 3.36188C9.43677 2.76655 8.45815 2.46889 7.13001 2.46889H2.59511V9.27133Z" fill="white"/>
</svg>
